<?xml version="1.0" encoding="UTF-8" standalone="no"?>
<!-- Created with Inkscape (http://www.inkscape.org/) -->

<svg
   width="50mm"
   height="50mm"
   viewBox="0 0 50 50"
   version="1.1"
   id="svg5"
   inkscape:version="1.1.1 (3bf5ae0d25, 2021-09-20)"
   sodipodi:docname="Attack Speed.svg"
   inkscape:export-filename="F:\Final Boss AnyPercent\Assets\Resources\VectorIcons\Shield.png"
   inkscape:export-xdpi="635"
   inkscape:export-ydpi="635"
   xmlns:inkscape="http://www.inkscape.org/namespaces/inkscape"
   xmlns:sodipodi="http://sodipodi.sourceforge.net/DTD/sodipodi-0.dtd"
   xmlns="http://www.w3.org/2000/svg"
   xmlns:svg="http://www.w3.org/2000/svg">
  <sodipodi:namedview
     id="namedview7"
     pagecolor="#000000"
     bordercolor="#666666"
     borderopacity="1.0"
     inkscape:pageshadow="2"
     inkscape:pageopacity="0"
     inkscape:pagecheckerboard="0"
     inkscape:document-units="mm"
     showgrid="false"
     inkscape:zoom="5.9295175"
     inkscape:cx="45.956522"
     inkscape:cy="163.50403"
     inkscape:window-width="1920"
     inkscape:window-height="1017"
     inkscape:window-x="1912"
     inkscape:window-y="-8"
     inkscape:window-maximized="1"
     inkscape:current-layer="layer1" />
  <defs
     id="defs2">
    <inkscape:path-effect
       effect="bspline"
       id="path-effect4687"
       is_visible="true"
       lpeversion="1"
       weight="33.333333"
       steps="2"
       helper_size="0"
       apply_no_weight="true"
       apply_with_weight="true"
       only_selected="false" />
    <inkscape:path-effect
       effect="bspline"
       id="path-effect4683"
       is_visible="true"
       lpeversion="1"
       weight="33.333333"
       steps="2"
       helper_size="0"
       apply_no_weight="true"
       apply_with_weight="true"
       only_selected="false" />
    <inkscape:path-effect
       effect="bspline"
       id="path-effect4679"
       is_visible="true"
       lpeversion="1"
       weight="33.333333"
       steps="2"
       helper_size="0"
       apply_no_weight="true"
       apply_with_weight="true"
       only_selected="false" />
    <inkscape:path-effect
       effect="bspline"
       id="path-effect4648"
       is_visible="true"
       lpeversion="1"
       weight="33.333333"
       steps="2"
       helper_size="0"
       apply_no_weight="true"
       apply_with_weight="true"
       only_selected="false" />
    <inkscape:path-effect
       effect="bspline"
       id="path-effect4644"
       is_visible="true"
       lpeversion="1"
       weight="33.333333"
       steps="2"
       helper_size="0"
       apply_no_weight="true"
       apply_with_weight="true"
       only_selected="false" />
    <inkscape:path-effect
       effect="bspline"
       id="path-effect4640"
       is_visible="true"
       lpeversion="1"
       weight="33.333333"
       steps="2"
       helper_size="0"
       apply_no_weight="true"
       apply_with_weight="true"
       only_selected="false" />
    <inkscape:path-effect
       effect="bspline"
       id="path-effect4548"
       is_visible="true"
       lpeversion="1"
       weight="33.333333"
       steps="2"
       helper_size="0"
       apply_no_weight="true"
       apply_with_weight="true"
       only_selected="false" />
    <inkscape:path-effect
       effect="bspline"
       id="path-effect4529"
       is_visible="true"
       lpeversion="1"
       weight="33.333333"
       steps="2"
       helper_size="0"
       apply_no_weight="true"
       apply_with_weight="true"
       only_selected="false" />
    <inkscape:path-effect
       effect="bspline"
       id="path-effect3524"
       is_visible="true"
       lpeversion="1"
       weight="33.333333"
       steps="2"
       helper_size="0"
       apply_no_weight="true"
       apply_with_weight="true"
       only_selected="false" />
    <inkscape:path-effect
       effect="spiro"
       id="path-effect2279"
       is_visible="true"
       lpeversion="1" />
    <clipPath
       clipPathUnits="userSpaceOnUse"
       id="clipPath4830">
      <path
         id="path4832"
         style="fill:#ff0000;fill-opacity:1;fill-rule:nonzero;stroke:none;stroke-width:0.264583"
         d="m 16.595886,36.254118 c -0.126232,0.133149 -0.25428,0.264872 -0.377238,0.401008 -0.46197,0.511498 -0.667405,0.747385 -0.783415,0.886251 v 10.28051 h 13.65808 V 36.254118 Z" />
    </clipPath>
    <clipPath
       clipPathUnits="userSpaceOnUse"
       id="clipPath4840">
      <path
         id="path4842"
         style="fill:#ff0000;fill-opacity:1;fill-rule:nonzero;stroke:none;stroke-width:0.264583"
         d="m 21.525301,30.590382 c -0.04322,0.04568 -0.08708,0.09081 -0.129191,0.137458 -0.126949,0.140611 -0.245562,0.288362 -0.368453,0.432531 -0.270383,0.295928 -0.540937,0.591875 -0.81132,0.887801 -1.517211,1.902079 0.680792,-0.826222 -1.78077,2.07636 -0.284047,0.334939 -0.529142,0.702183 -0.818555,1.032494 -0.443194,0.505833 -0.92492,0.976644 -1.37666,1.474846 h 10.65103 v -6.04149 z" />
    </clipPath>
    <clipPath
       clipPathUnits="userSpaceOnUse"
       id="clipPath4850">
      <path
         id="path4852"
         style="fill:#ff0000;fill-opacity:1;fill-rule:nonzero;stroke:none;stroke-width:0.264583"
         d="m 20.664371,31.557764 c -0.149383,0.163449 -0.298698,0.326964 -0.448034,0.490408 -1.517211,1.902079 0.680792,-0.826222 -1.78077,2.07636 -0.284047,0.334939 -0.529142,0.702183 -0.818555,1.032494 -0.450179,0.513805 -0.940494,0.991143 -1.398364,1.4981 -0.516931,0.572352 -0.734251,0.823093 -0.832507,0.944129 h 10.861352 v -6.041491 z" />
    </clipPath>
    <clipPath
       clipPathUnits="userSpaceOnUse"
       id="clipPath4860">
      <path
         id="path4862"
         style="fill:#ff0000;fill-opacity:1;fill-rule:nonzero;stroke:none;stroke-width:0.264583"
         d="m 19.803442,32.567004 c -0.368075,0.463159 0.649512,-0.821298 -1.367875,1.557528 -0.284047,0.334939 -0.529142,0.702183 -0.818555,1.032494 -0.450179,0.513805 -0.940494,0.991143 -1.398364,1.4981 -1.848814,2.047031 -0.793525,0.950405 -1.781803,1.953371 h 11.274247 v -6.041493 z" />
    </clipPath>
    <clipPath
       clipPathUnits="userSpaceOnUse"
       id="clipPath7777">
      <path
         id="path7779"
         style="fill:#ff0000;fill-opacity:1;fill-rule:nonzero;stroke:none;stroke-width:0.264583"
         d="m 18.881534,33.606735 c -0.162202,0.188878 -0.197281,0.224557 -0.445967,0.517797 -0.284047,0.334939 -0.529142,0.702183 -0.818555,1.032494 -0.450179,0.513805 -0.940494,0.991143 -1.398364,1.4981 -2.285455,2.530483 0.853974,-0.752327 -2.368331,2.551782 -0.523078,0.599099 -0.274203,0.311301 -0.387056,0.441317 h 11.745536 v -6.04149 z" />
    </clipPath>
    <clipPath
       clipPathUnits="userSpaceOnUse"
       id="clipPath7787">
      <path
         id="path7789"
         style="fill:#ff0000;fill-opacity:1;fill-rule:nonzero;stroke:none;stroke-width:0.264583"
         d="m 18.082617,34.573602 c -0.150637,0.198215 -0.301662,0.396316 -0.465605,0.583424 -0.450179,0.513805 -0.940494,0.991143 -1.398364,1.4981 -2.285455,2.530483 0.853974,-0.752327 -2.368331,2.551782 -0.24361,0.279014 -0.303037,0.34685 -0.447518,0.51263 -0.01624,0.217522 -0.04556,0.434372 -0.05891,0.652159 -0.005,0.0812 -0.0065,0.162639 -0.0098,0.243911 h 11.23084 v -6.042006 z" />
    </clipPath>
    <clipPath
       clipPathUnits="userSpaceOnUse"
       id="clipPath7797">
      <path
         id="path7799"
         style="fill:#ff0000;fill-opacity:1;fill-rule:nonzero;stroke:none;stroke-width:0.264583"
         d="m 17.222204,35.583357 c -0.334613,0.357053 -0.675561,0.70861 -1.003556,1.071769 -2.285455,2.530483 0.853974,-0.752327 -2.368331,2.551782 -0.253435,0.290269 -0.304053,0.34889 -0.447518,0.513665 -0.01625,0.217173 -0.04558,0.433681 -0.05891,0.651124 -0.01763,0.287715 -0.02209,0.576201 -0.03514,0.864028 0.09181,0.430829 0.03639,0.07736 0.0863,0.389126 h 10.633459 v -6.041494 z" />
    </clipPath>
    <clipPath
       clipPathUnits="userSpaceOnUse"
       id="clipPath7807">
      <path
         id="path7809"
         style="fill:#ff0000;fill-opacity:1;fill-rule:nonzero;stroke:none;stroke-width:0.264583"
         d="m 16.358174,36.506817 c -0.04605,0.04983 -0.09405,0.09796 -0.139526,0.148309 -2.285455,2.530483 0.853974,-0.752327 -2.368331,2.551782 -0.257171,0.29455 -0.304491,0.349332 -0.447518,0.513665 -0.01625,0.217173 -0.04558,0.433681 -0.05891,0.651124 -0.01763,0.287715 -0.02209,0.576201 -0.03514,0.864028 0.115544,0.542235 -0.03585,-0.358497 0.142627,0.737939 0.10001,0.465839 0.105829,0.488683 0.12454,0.574643 h 9.847978 v -6.04149 z" />
    </clipPath>
    <clipPath
       clipPathUnits="userSpaceOnUse"
       id="clipPath7817">
      <path
         id="path7819"
         style="fill:#ff0000;fill-opacity:1;fill-rule:nonzero;stroke:none;stroke-width:0.264583"
         d="m 15.492594,37.4742 c -0.622261,0.728263 1.018883,-0.996009 -1.642277,1.732708 -0.257171,0.29455 -0.304491,0.349332 -0.447518,0.513665 -0.01625,0.217173 -0.04558,0.433681 -0.05891,0.651124 -0.01763,0.287715 -0.02209,0.576201 -0.03514,0.864028 0.115544,0.542235 -0.03585,-0.358497 0.142627,0.737939 0.278426,1.29689 0.09175,0.352843 0.275435,1.448491 0.0056,0.03356 0.01131,0.06135 0.01705,0.09354 h 9.036141 V 37.4742 Z" />
    </clipPath>
    <clipPath
       clipPathUnits="userSpaceOnUse"
       id="clipPath7827">
      <path
         id="path7829"
         style="fill:#ff0000;fill-opacity:1;fill-rule:nonzero;stroke:none;stroke-width:0.264583"
         d="m 14.559318,38.483955 c -0.210796,0.213228 0.03496,-0.03989 -0.709001,0.722953 -0.257171,0.29455 -0.304491,0.349332 -0.447518,0.513665 -0.01625,0.217173 -0.04558,0.433681 -0.05891,0.651124 -0.01764,0.287882 -0.02156,0.576551 -0.03462,0.864547 0.115386,0.541396 -0.03632,-0.358759 0.14211,0.73742 0.278426,1.29689 0.09175,0.352843 0.275435,1.448491 0.07122,0.424809 0.154483,0.733083 0.171566,1.103294 h 8.345227 v -6.041494 z" />
    </clipPath>
  </defs>
  <g
     inkscape:label="Layer 1"
     inkscape:groupmode="layer"
     id="layer1">
    <path
       id="rect1539"
       style="fill:#ffffff;stroke:#ffffff;stroke-width:0;stroke-linecap:square;stroke-linejoin:miter;stroke-miterlimit:0;stroke-dasharray:none;paint-order:markers stroke fill"
       d="m 29.093216,36.254242 -3.557744,0.320003 c -0.02108,-0.01799 -0.0521,-0.01904 -0.07405,-5.98e-4 l -0.0096,0.0079 -6.840932,5.740226 -0.481979,-0.5744 c -0.08905,-0.106104 -0.24625,-0.119871 -0.352369,-0.03083 L 16.627744,42.6805 c -0.106114,0.08904 -0.119872,0.24625 -0.03083,0.352368 l 1.124726,1.340397 -2.275825,1.909645 c -0.01225,0.01027 -0.01386,0.0285 -0.0035,0.04079 l 1.248625,1.488055 c 0.01027,0.01225 0.02818,0.0134 0.04043,0.0032 l 2.275827,-1.909647 1.125058,1.340795 c 0.08905,0.106105 0.246248,0.119872 0.352368,0.03083 l 1.148798,-0.963956 c 0.106114,-0.08904 0.119872,-0.246249 0.03083,-0.352368 l -0.48198,-0.574401 6.850435,-5.748197 c 0.0023,-0.0019 0.0039,-0.004 0.0057,-0.006 l 6.43e-4,7.66e-4 5.69e-4,-0.0025 c 0.0097,-0.01179 0.014,-0.02643 0.01273,-0.04107 z"
       clip-path="url(#clipPath4830)" />
    <path
       style="fill:none;stroke:#ffffff;stroke-width:0.264583px;stroke-linecap:butt;stroke-linejoin:miter;stroke-opacity:1"
       d="M 26.801723,36.534533 C 24.677491,34.578557 22.553026,32.622367 20.028802,31.654623 17.504578,30.686879 14.580809,30.707915 11.65672,30.728954"
       id="path3522"
       inkscape:path-effect="#path-effect3524"
       inkscape:original-d="m 26.801723,36.534533 c -2.124242,-1.955965 -4.248707,-3.912155 -6.373522,-5.868689 -2.923621,0.0213 -5.84739,0.04233 -8.771481,0.06311"
       sodipodi:nodetypes="ccc"
       clip-path="url(#clipPath4840)" />
    <path
       style="fill:none;stroke:#ffffff;stroke-width:0.264583px;stroke-linecap:butt;stroke-linejoin:miter;stroke-opacity:1"
       d="M 26.157904,37.501735 C 24.033672,35.545759 21.909207,33.589569 19.384983,32.621825 16.860759,31.654081 13.93699,31.675117 11.012901,31.696156"
       id="path3522-9"
       inkscape:path-effect="#path-effect4529"
       inkscape:original-d="m 26.157904,37.501735 c -2.124242,-1.955965 -4.248707,-3.912155 -6.373522,-5.868689 -2.923621,0.0213 -5.84739,0.04233 -8.771481,0.06311"
       sodipodi:nodetypes="ccc"
       clip-path="url(#clipPath4850)" />
    <path
       style="fill:none;stroke:#ffffff;stroke-width:0.264583px;stroke-linecap:butt;stroke-linejoin:miter;stroke-opacity:1"
       d="m 25.621518,38.511402 c -2.124232,-1.955976 -4.248697,-3.912166 -6.772921,-4.87991 -2.524224,-0.967744 -5.447993,-0.946708 -8.372081,-0.925669"
       id="path3522-90"
       inkscape:path-effect="#path-effect4548"
       inkscape:original-d="m 25.621518,38.511402 c -2.124242,-1.955965 -4.248707,-3.912155 -6.373522,-5.868689 -2.923621,0.0213 -5.84739,0.04233 -8.77148,0.06311"
       sodipodi:nodetypes="ccc"
       clip-path="url(#clipPath4860)" />
    <path
       style="fill:none;stroke:#ffffff;stroke-width:0.264583px;stroke-linecap:butt;stroke-linejoin:miter;stroke-opacity:1"
       d="M 25.119025,39.550832 C 22.994793,37.594856 20.870328,35.638666 18.346104,34.670922 15.82188,33.703178 12.898111,33.724214 9.9740217,33.745253"
       id="path3522-8"
       inkscape:path-effect="#path-effect4640"
       inkscape:original-d="m 25.119025,39.550832 c -2.124242,-1.955965 -4.248707,-3.912155 -6.373522,-5.868689 -2.923621,0.0213 -5.84739,0.04233 -8.7714813,0.06311"
       sodipodi:nodetypes="ccc"
       clip-path="url(#clipPath7777)" />
    <path
       style="fill:none;stroke:#ffffff;stroke-width:0.264583px;stroke-linecap:butt;stroke-linejoin:miter;stroke-opacity:1"
       d="M 24.475206,40.518034 C 22.350974,38.562058 20.226509,36.605868 17.702285,35.638124 15.178061,34.67038 12.254292,34.691416 9.330203,34.712455"
       id="path3522-9-1"
       inkscape:path-effect="#path-effect4644"
       inkscape:original-d="m 24.475206,40.518034 c -2.124242,-1.955965 -4.248707,-3.912155 -6.373522,-5.868689 -2.923621,0.0213 -5.84739,0.04233 -8.771481,0.06311"
       sodipodi:nodetypes="ccc"
       clip-path="url(#clipPath7787)" />
    <path
       style="fill:none;stroke:#ffffff;stroke-width:0.264583px;stroke-linecap:butt;stroke-linejoin:miter;stroke-opacity:1"
       d="M 23.93882,41.527701 C 21.814588,39.571725 19.690123,37.615535 17.165899,36.647791 14.641675,35.680047 11.717906,35.701083 8.793818,35.722122"
       id="path3522-90-1"
       inkscape:path-effect="#path-effect4648"
       inkscape:original-d="m 23.93882,41.527701 c -2.124242,-1.955965 -4.248707,-3.912155 -6.373522,-5.868689 -2.923621,0.0213 -5.84739,0.04233 -8.77148,0.06311"
       sodipodi:nodetypes="ccc"
       clip-path="url(#clipPath7797)" />
    <path
       style="fill:none;stroke:#ffffff;stroke-width:0.264583px;stroke-linecap:butt;stroke-linejoin:miter;stroke-opacity:1"
       d="M 23.334169,42.451221 C 21.209937,40.495245 19.085472,38.539055 16.561248,37.571311 14.037024,36.603567 11.113255,36.624603 8.189166,36.645642"
       id="path3522-96"
       inkscape:path-effect="#path-effect4679"
       inkscape:original-d="m 23.334169,42.451221 c -2.124242,-1.955965 -4.248707,-3.912155 -6.373522,-5.868689 -2.923621,0.0213 -5.84739,0.04233 -8.771481,0.06311"
       sodipodi:nodetypes="ccc"
       clip-path="url(#clipPath7807)" />
    <path
       style="fill:none;stroke:#ffffff;stroke-width:0.264583px;stroke-linecap:butt;stroke-linejoin:miter;stroke-opacity:1"
       d="M 22.69035,43.418423 C 20.566118,41.462447 18.441653,39.506257 15.917429,38.538513 13.393205,37.570769 10.469436,37.591805 7.545347,37.612844"
       id="path3522-9-6"
       inkscape:path-effect="#path-effect4683"
       inkscape:original-d="m 22.69035,43.418423 c -2.124242,-1.955965 -4.248707,-3.912155 -6.373522,-5.868689 -2.923621,0.0213 -5.84739,0.04233 -8.771481,0.06311"
       sodipodi:nodetypes="ccc"
       clip-path="url(#clipPath7817)" />
    <path
       style="fill:none;stroke:#ffffff;stroke-width:0.264583px;stroke-linecap:butt;stroke-linejoin:miter;stroke-opacity:1"
       d="M 22.153964,44.42809 C 20.029732,42.472114 17.905267,40.515924 15.381043,39.54818 12.856819,38.580436 9.9330498,38.601472 7.008962,38.622511"
       id="path3522-90-11"
       inkscape:path-effect="#path-effect4687"
       inkscape:original-d="m 22.153964,44.42809 c -2.124242,-1.955965 -4.248707,-3.912155 -6.373522,-5.868689 -2.923621,0.0213 -5.8473903,0.04233 -8.77148,0.06311"
       sodipodi:nodetypes="ccc"
       clip-path="url(#clipPath7827)" />
  </g>
</svg>
