<?xml version="1.0" encoding="UTF-8" standalone="no"?>
<!-- Created with Inkscape (http://www.inkscape.org/) -->

<svg
   width="210mm"
   height="297mm"
   viewBox="0 0 210 297"
   version="1.1"
   id="svg5"
   inkscape:version="1.1.1 (3bf5ae0d25, 2021-09-20)"
   sodipodi:docname="Square Border.svg"
   inkscape:export-filename="G:\Final Boss AnyPercent\Assets\Resources\Sprites\UI\Square Border.png"
   inkscape:export-xdpi="635"
   inkscape:export-ydpi="635"
   xmlns:inkscape="http://www.inkscape.org/namespaces/inkscape"
   xmlns:sodipodi="http://sodipodi.sourceforge.net/DTD/sodipodi-0.dtd"
   xmlns="http://www.w3.org/2000/svg"
   xmlns:svg="http://www.w3.org/2000/svg">
  <sodipodi:namedview
     id="namedview7"
     pagecolor="#000000"
     bordercolor="#666666"
     borderopacity="1.0"
     inkscape:pageshadow="2"
     inkscape:pageopacity="0"
     inkscape:pagecheckerboard="0"
     inkscape:document-units="mm"
     showgrid="false"
     inkscape:zoom="8.385604"
     inkscape:cx="55.034795"
     inkscape:cy="24.267781"
     inkscape:window-width="1920"
     inkscape:window-height="1017"
     inkscape:window-x="-8"
     inkscape:window-y="-8"
     inkscape:window-maximized="1"
     inkscape:current-layer="layer1" />
  <defs
     id="defs2">
    <inkscape:path-effect
       effect="spiro"
       id="path-effect2279"
       is_visible="true"
       lpeversion="1" />
  </defs>
  <g
     inkscape:label="Layer 1"
     inkscape:groupmode="layer"
     id="layer1">
    <path
       id="rect4571"
       style="fill:#ffffff;stroke:#ffffff;stroke-width:0;stroke-linecap:square;stroke-linejoin:miter;stroke-miterlimit:0;stroke-dasharray:none;stroke-opacity:1;paint-order:markers fill stroke"
       d="m 0.0279005,5e-7 c -0.01546,0 -0.0279,0.012445 -0.0279,0.027905 v 4.9444011 c 0,0.01546 0.01244,0.027905 0.0279,0.027905 h 4.944401 c 0.01546,-2e-7 0.02791,-0.012445 0.02791,-0.027905 V 0.0279057 c 0,-0.01546 -0.01244,-0.027905 -0.02791,-0.027905 z m 0.247013,0.2501139 h 4.449858 c 0.01391,0 0.02532,0.010891 0.02532,0.024805 v 4.4498575 c 0,0.013914 -0.01141,0.025322 -0.02532,0.025322 h -4.449858 c -0.01391,0 -0.0248,-0.011407 -0.0248,-0.025322 V 0.2749191 c 0,-0.013914 0.01089,-0.024805 0.0248,-0.0248047 z" />
  </g>
</svg>
